<?xml version="1.0" standalone="no"?>
<!DOCTYPE svg PUBLIC "-//W3C//DTD SVG 20010904//EN"
 "http://www.w3.org/TR/2001/REC-SVG-20010904/DTD/svg10.dtd">
<svg version="1.0" xmlns="http://www.w3.org/2000/svg"
 width="512.000000pt" height="512.000000pt" viewBox="0 0 512.000000 512.000000"
 preserveAspectRatio="xMidYMid meet">
<metadata>
Created by potrace 1.14, written by Peter Selinger 2001-2017
</metadata>
<g transform="translate(0.000000,512.000000) scale(0.100000,-0.100000)"
fill="#000000" stroke="none">
<path d="M4660 4859 c-47 -11 -101 -21 -120 -25 -19 -3 -43 -7 -52 -10 -20 -6
-43 -10 -92 -18 -19 -3 -57 -11 -83 -17 -27 -6 -59 -13 -73 -15 -14 -2 -36 -7
-50 -10 -14 -3 -36 -8 -50 -10 -35 -7 -58 -11 -115 -23 -27 -6 -61 -13 -75
-16 -14 -2 -36 -7 -50 -10 -35 -8 -62 -13 -101 -19 -19 -3 -63 -12 -99 -20
-36 -8 -78 -17 -95 -19 -16 -3 -118 -23 -225 -45 -107 -22 -208 -43 -225 -45
-16 -3 -63 -12 -102 -21 -40 -9 -85 -18 -100 -21 -16 -2 -109 -21 -208 -41
-99 -19 -191 -38 -205 -40 -14 -2 -43 -8 -65 -14 -33 -8 -239 -49 -333 -66
-12 -3 -147 -30 -300 -60 -152 -31 -286 -58 -297 -60 -11 -2 -31 -6 -45 -9
-14 -3 -36 -7 -50 -10 -27 -5 -263 -53 -295 -59 -11 -3 -114 -23 -230 -46
-116 -23 -217 -43 -225 -45 -8 -2 -107 -22 -220 -44 -113 -23 -222 -48 -244
-57 -146 -57 -245 -212 -232 -364 10 -126 37 -167 107 -162 16 1 29 -2 29 -8
0 -5 18 -23 40 -39 l40 -29 -43 -27 c-79 -52 -126 -114 -156 -203 -21 -62 -21
-64 -19 -1395 l3 -1332 22 -40 c24 -46 54 -75 103 -101 33 -18 73 -19 748 -20
688 -1 714 0 738 18 13 11 24 27 24 37 0 14 11 17 74 18 73 2 74 1 86 -27 8
-19 23 -32 44 -39 38 -11 3076 -8 3124 4 46 11 124 90 140 140 9 31 11 370 9
1470 l-2 1430 -24 34 c-49 68 102 64 -1978 63 -1036 0 -1883 4 -1883 8 0 5 19
11 43 15 62 11 77 14 95 19 9 3 31 8 47 11 17 2 39 7 50 9 58 12 494 98 515
102 14 3 66 13 115 24 50 10 104 21 120 24 38 7 124 24 150 30 16 4 169 34
260 52 11 2 200 40 420 84 220 44 413 83 429 86 17 3 109 21 205 40 530 107
664 134 689 139 135 23 615 126 631 134 11 6 32 27 46 45 29 38 35 101 16 171
-5 22 -12 52 -15 66 -19 111 -50 251 -63 287 -17 45 -77 106 -120 123 -47 17
-116 17 -203 -2z m-3440 -1459 c0 -5 -10 -10 -22 -9 -22 0 -22 1 -3 9 11 5 21
9 23 9 1 1 2 -3 2 -9z"/>
</g>
</svg>
